<svg xmlns="http://www.w3.org/2000/svg" xmlns:xlink="http://www.w3.org/1999/xlink" contentStyleType="text/css" data-diagram-type="DESCRIPTION" height="922px" preserveAspectRatio="none" style="width:1369px;height:922px;background:#FFFFFF;" version="1.1" viewBox="0 0 1369 922" width="1369px" zoomAndPan="magnify"><defs/><g><!--cluster LAN--><g class="cluster" data-entity="LAN" data-source-line="24" data-uid="ent0002" id="cluster_LAN"><path d="M79.7717,155.5743 C105.0817,113.0116 129.3274,118.3903 156.2516,153.9949 C178.3502,113.4601 214.5306,113.6168 240.0425,150.2907 C265.2649,113.8976 302.8404,107.3754 326.3594,152.1033 C350.7177,111.8912 392.8051,110.5647 414.249,155.1249 C438.5184,115.6249 474.4743,111.4302 504.4577,148.3827 C524.7899,105.686 553.6272,112.9329 579.5433,142.5878 C614.8544,92.9233 646.0698,94.4584 677.935,145.9398 C706.9078,105.3807 735.509,109.1323 760.0517,150.3865 C775.3326,111.5219 813.4663,106.2767 836.8274,142.078 C872.9913,101.1215 903.3603,95.5732 932.0291,149.591 C953.6031,113.7196 992.9967,112.1719 1012.5547,151.7428 C1039.4455,112.6229 1077.2385,122.409 1097.7833,158.8964 C1118.9093,119.8156 1152.6213,106.4465 1184.0407,147.867 C1212.1418,105.2206 1243.9114,111.4623 1266.6518,153.12 C1271.9303,149.7868 1275.2113,151.6713 1275.4569,157.8024 C1321.0101,178.454 1323.9416,214.7314 1280.3996,240.6954 C1321.597,269.8216 1318.8199,298.6381 1283.0492,330.0467 C1328.1617,352.7241 1326.1564,392.8739 1282.696,415.1839 C1323.9514,446.393 1317.7236,481.8506 1278.5681,509.542 C1323.3788,539.8576 1319.7001,570.7702 1277.3032,599.8645 C1320.445,619.7299 1319.9062,654.3179 1280.487,677.5661 C1319.5452,710.0091 1332.1853,742.2491 1279.2109,773.4674 C1312.8577,807.7263 1303.9223,837.5469 1259.6518,852.53 C1264.4026,852.1234 1266.1915,854.5054 1264.4804,858.955 C1243.4782,900.1055 1214.7635,902.9218 1188.0545,864.4315 C1159.3102,903.1637 1126.0879,902.6918 1096.7104,865.1903 C1073.5634,904.2076 1035.0978,903.2179 1018.3553,859.1505 C992.2796,908.5366 960.3187,905.708 926.7052,866.9918 C904.442,908.5976 867.2038,902.954 845.1832,866.7377 C815.6298,906.3024 781.0739,906.7069 757.8594,860.2992 C734.9986,900.7105 699.138,907.7725 668.6868,868.8287 C640.9192,915.5098 611.4309,915.3665 579.1165,873.424 C552.2623,907.6706 527.7809,915.7509 500.7776,873.5768 C469.5337,914.1384 433.7413,914.2705 409.4297,866.4148 C387.4445,901.4525 355.9361,892.3171 337.9576,862.0309 C305.1607,900.6499 275.0436,899.1359 247.5975,856.109 C229.228,900.133 192.1709,900.8373 166.551,863.315 C121.4023,908.3441 88.0528,906.1788 60.6518,845.53 C62.2933,845.3347 62.879,846.4158 62.2837,847.8167 C22.4352,817.1795 26.3656,790.1667 66.8694,763.9214 C15.0141,745.4996 14.5255,704.3194 55.2494,673.942 C14.6066,648.9214 11,614.2716 52.6926,586.8343 C12.1999,560.9161 20.7188,531.2977 53.9995,506.5808 C20.4594,479.2825 15.0623,435.5498 63.8291,417.3148 C22.7231,395.1317 18.1128,364.2662 54.3557,333.3556 C22.3332,294.6071 16.026,263.934 71.9434,242.1419 C22.7445,217.7326 19.7283,174.8702 67.6518,146.12 C76.324,143.2802 79.8766,147.1624 79.7717,155.5743" fill="#FFFFFF" style="stroke:#000000;stroke-width:1;"/><text fill="#000000" font-family="sans-serif" font-size="20" font-weight="bold" lengthAdjust="spacing" textLength="254.5019" x="536.4009" y="169.6845">&#23616;&#22495;&#32593; (192.168.1.0/24)</text></g><!--cluster NodeA--><g class="cluster" data-entity="NodeA" data-source-line="25" data-uid="ent0003" id="cluster_NodeA"><polygon fill="#F5F5F5" points="84.6518,206.12,94.6518,196.12,647.6518,196.12,647.6518,490.33,637.6518,500.33,84.6518,500.33,84.6518,206.12" style="stroke:#333333;stroke-width:1;"/><line style="stroke:#333333;stroke-width:1;" x1="637.6518" x2="647.6518" y1="206.12" y2="196.12"/><line style="stroke:#333333;stroke-width:1;" x1="84.6518" x2="637.6518" y1="206.12" y2="206.12"/><line style="stroke:#333333;stroke-width:1;" x1="637.6518" x2="637.6518" y1="206.12" y2="500.33"/><text fill="#000000" font-family="sans-serif" font-size="20" font-weight="bold" lengthAdjust="spacing" textLength="55.4785" x="334.4126" y="227.6845">&#33410;&#28857;A</text><text fill="#000000" font-family="sans-serif" font-size="20" font-weight="bold" lengthAdjust="spacing" textLength="192.0508" x="266.1264" y="250.9657">IP:192.168.1.101</text></g><!--cluster DaemonA--><g class="cluster" data-entity="DaemonA" data-source-line="27" data-uid="ent0005" id="cluster_DaemonA"><rect fill="#FFFFFF" height="111.29" rx="2.5" ry="2.5" style="stroke:#000000;stroke-width:1;" width="291" x="108.6518" y="274.12"/><rect fill="#FFFFFF" height="10" style="stroke:#000000;stroke-width:1;" width="15" x="379.6518" y="279.12"/><rect fill="#FFFFFF" height="2" style="stroke:#000000;stroke-width:1;" width="4" x="377.6518" y="281.12"/><rect fill="#FFFFFF" height="2" style="stroke:#000000;stroke-width:1;" width="4" x="377.6518" y="285.12"/><text fill="#000000" font-family="sans-serif" font-size="20" font-weight="bold" lengthAdjust="spacing" textLength="199.2578" x="154.5229" y="305.6845">P2Pbuild Daemon</text></g><!--cluster NodeB--><g class="cluster" data-entity="NodeB" data-source-line="35" data-uid="ent0010" id="cluster_NodeB"><polygon fill="#F5F5F5" points="671.6518,206.12,681.6518,196.12,1234.6518,196.12,1234.6518,490.33,1224.6518,500.33,671.6518,500.33,671.6518,206.12" style="stroke:#333333;stroke-width:1;"/><line style="stroke:#333333;stroke-width:1;" x1="1224.6518" x2="1234.6518" y1="206.12" y2="196.12"/><line style="stroke:#333333;stroke-width:1;" x1="671.6518" x2="1224.6518" y1="206.12" y2="206.12"/><line style="stroke:#333333;stroke-width:1;" x1="1224.6518" x2="1224.6518" y1="206.12" y2="500.33"/><text fill="#000000" font-family="sans-serif" font-size="20" font-weight="bold" lengthAdjust="spacing" textLength="55.2441" x="921.5298" y="227.6845">&#33410;&#28857;B</text><text fill="#000000" font-family="sans-serif" font-size="20" font-weight="bold" lengthAdjust="spacing" textLength="192.0508" x="853.1264" y="250.9657">IP:192.168.1.102</text></g><!--cluster DaemonB--><g class="cluster" data-entity="DaemonB" data-source-line="37" data-uid="ent0012" id="cluster_DaemonB"><rect fill="#FFFFFF" height="111.29" rx="2.5" ry="2.5" style="stroke:#000000;stroke-width:1;" width="291" x="695.6518" y="274.12"/><rect fill="#FFFFFF" height="10" style="stroke:#000000;stroke-width:1;" width="15" x="966.6518" y="279.12"/><rect fill="#FFFFFF" height="2" style="stroke:#000000;stroke-width:1;" width="4" x="964.6518" y="281.12"/><rect fill="#FFFFFF" height="2" style="stroke:#000000;stroke-width:1;" width="4" x="964.6518" y="285.12"/><text fill="#000000" font-family="sans-serif" font-size="20" font-weight="bold" lengthAdjust="spacing" textLength="199.2578" x="741.5229" y="305.6845">P2Pbuild Daemon</text></g><!--cluster NodeC--><g class="cluster" data-entity="NodeC" data-source-line="45" data-uid="ent0017" id="cluster_NodeC"><polygon fill="#F5F5F5" points="84.6518,534.33,94.6518,524.33,647.6518,524.33,647.6518,818.53,637.6518,828.53,84.6518,828.53,84.6518,534.33" style="stroke:#333333;stroke-width:1;"/><line style="stroke:#333333;stroke-width:1;" x1="637.6518" x2="647.6518" y1="534.33" y2="524.33"/><line style="stroke:#333333;stroke-width:1;" x1="84.6518" x2="637.6518" y1="534.33" y2="534.33"/><line style="stroke:#333333;stroke-width:1;" x1="637.6518" x2="637.6518" y1="534.33" y2="828.53"/><text fill="#000000" font-family="sans-serif" font-size="20" font-weight="bold" lengthAdjust="spacing" textLength="54.6777" x="334.813" y="555.8945">&#33410;&#28857;C</text><text fill="#000000" font-family="sans-serif" font-size="20" font-weight="bold" lengthAdjust="spacing" textLength="192.0508" x="266.1264" y="579.1757">IP:192.168.1.103</text></g><!--cluster DaemonC--><g class="cluster" data-entity="DaemonC" data-source-line="47" data-uid="ent0019" id="cluster_DaemonC"><rect fill="#FFFFFF" height="111.28" rx="2.5" ry="2.5" style="stroke:#000000;stroke-width:1;" width="291" x="108.6518" y="602.33"/><rect fill="#FFFFFF" height="10" style="stroke:#000000;stroke-width:1;" width="15" x="379.6518" y="607.33"/><rect fill="#FFFFFF" height="2" style="stroke:#000000;stroke-width:1;" width="4" x="377.6518" y="609.33"/><rect fill="#FFFFFF" height="2" style="stroke:#000000;stroke-width:1;" width="4" x="377.6518" y="613.33"/><text fill="#000000" font-family="sans-serif" font-size="20" font-weight="bold" lengthAdjust="spacing" textLength="199.2578" x="154.5229" y="633.8945">P2Pbuild Daemon</text></g><!--cluster NodeD--><g class="cluster" data-entity="NodeD" data-source-line="55" data-uid="ent0024" id="cluster_NodeD"><polygon fill="#F5F5F5" points="671.6518,534.33,681.6518,524.33,1234.6518,524.33,1234.6518,818.53,1224.6518,828.53,671.6518,828.53,671.6518,534.33" style="stroke:#333333;stroke-width:1;"/><line style="stroke:#333333;stroke-width:1;" x1="1224.6518" x2="1234.6518" y1="534.33" y2="524.33"/><line style="stroke:#333333;stroke-width:1;" x1="671.6518" x2="1224.6518" y1="534.33" y2="534.33"/><line style="stroke:#333333;stroke-width:1;" x1="1224.6518" x2="1224.6518" y1="534.33" y2="828.53"/><text fill="#000000" font-family="sans-serif" font-size="20" font-weight="bold" lengthAdjust="spacing" textLength="56.6015" x="920.851" y="555.8945">&#33410;&#28857;D</text><text fill="#000000" font-family="sans-serif" font-size="20" font-weight="bold" lengthAdjust="spacing" textLength="192.0508" x="853.1264" y="579.1757">IP:192.168.1.104</text></g><!--cluster DaemonD--><g class="cluster" data-entity="DaemonD" data-source-line="57" data-uid="ent0026" id="cluster_DaemonD"><rect fill="#FFFFFF" height="111.28" rx="2.5" ry="2.5" style="stroke:#000000;stroke-width:1;" width="291" x="695.6518" y="602.33"/><rect fill="#FFFFFF" height="10" style="stroke:#000000;stroke-width:1;" width="15" x="966.6518" y="607.33"/><rect fill="#FFFFFF" height="2" style="stroke:#000000;stroke-width:1;" width="4" x="964.6518" y="609.33"/><rect fill="#FFFFFF" height="2" style="stroke:#000000;stroke-width:1;" width="4" x="964.6518" y="613.33"/><text fill="#000000" font-family="sans-serif" font-size="20" font-weight="bold" lengthAdjust="spacing" textLength="199.2578" x="741.5229" y="633.8945">P2Pbuild Daemon</text></g><!--entity ClientA--><g class="entity" data-entity="ClientA" data-source-line="26" data-uid="ent0004" id="entity_ClientA"><rect fill="#ADD8E6" height="76.5625" rx="2.5" ry="2.5" style="stroke:#000000;stroke-width:1;" width="103.7305" x="418.7818" y="304.48"/><rect fill="#ADD8E6" height="10" style="stroke:#000000;stroke-width:1;" width="15" x="502.5123" y="309.48"/><rect fill="#ADD8E6" height="2" style="stroke:#000000;stroke-width:1;" width="4" x="500.5123" y="311.48"/><rect fill="#ADD8E6" height="2" style="stroke:#000000;stroke-width:1;" width="4" x="500.5123" y="315.48"/><text fill="#000000" font-family="sans-serif" font-size="20" lengthAdjust="spacing" textLength="63.7305" x="433.7818" y="343.0445">Ninja2</text><text fill="#000000" font-family="sans-serif" font-size="20" lengthAdjust="spacing" textLength="60" x="433.7818" y="366.3257">&#23458;&#25143;&#31471;</text></g><!--entity RedisA--><g class="entity" data-entity="RedisA" data-source-line="31" data-uid="ent0008" id="entity_RedisA"><path d="M557.2118,326.62 C557.2118,316.62 594.6483,316.62 594.6483,316.62 C594.6483,316.62 632.0849,316.62 632.0849,326.62 L632.0849,358.9013 C632.0849,368.9013 594.6483,368.9013 594.6483,368.9013 C594.6483,368.9013 557.2118,368.9013 557.2118,358.9013 L557.2118,326.62" fill="#D3D3D3" style="stroke:#666666;stroke-width:1;"/><path d="M557.2118,326.62 C557.2118,336.62 594.6483,336.62 594.6483,336.62 C594.6483,336.62 632.0849,336.62 632.0849,326.62" fill="none" style="stroke:#666666;stroke-width:1;"/><text fill="#000000" font-family="sans-serif" font-size="20" lengthAdjust="spacing" textLength="54.873" x="567.2118" y="359.1845">Redis</text></g><!--entity NFSA--><g class="entity" data-entity="NFSA" data-source-line="32" data-uid="ent0009" id="entity_NFSA"><rect fill="#D3D3D3" height="43.2813" rx="35" ry="35" style="stroke:#000000;stroke-width:1;" width="59.1602" x="441.0718" y="441.05"/><text fill="#000000" font-family="sans-serif" font-size="20" lengthAdjust="spacing" textLength="39.1602" x="451.0718" y="469.6145">NFS</text></g><!--entity ProxyA--><g class="entity" data-entity="ProxyA" data-source-line="28" data-uid="ent0006" id="entity_ProxyA"><rect fill="#98FB98" height="53.2813" rx="2.5" ry="2.5" style="stroke:#000000;stroke-width:1;" width="96.1914" x="124.5518" y="316.12"/><rect fill="#98FB98" height="10" style="stroke:#000000;stroke-width:1;" width="15" x="200.7432" y="321.12"/><rect fill="#98FB98" height="2" style="stroke:#000000;stroke-width:1;" width="4" x="198.7432" y="323.12"/><rect fill="#98FB98" height="2" style="stroke:#000000;stroke-width:1;" width="4" x="198.7432" y="327.12"/><text fill="#000000" font-family="sans-serif" font-size="20" lengthAdjust="spacing" textLength="56.1914" x="139.5518" y="354.6845">Proxy</text></g><!--entity ExecutorA--><g class="entity" data-entity="ExecutorA" data-source-line="29" data-uid="ent0007" id="entity_ExecutorA"><rect fill="#FFC0CB" height="53.2813" rx="2.5" ry="2.5" style="stroke:#000000;stroke-width:1;" width="128.75" x="255.2818" y="316.12"/><rect fill="#FFC0CB" height="10" style="stroke:#000000;stroke-width:1;" width="15" x="364.0318" y="321.12"/><rect fill="#FFC0CB" height="2" style="stroke:#000000;stroke-width:1;" width="4" x="362.0318" y="323.12"/><rect fill="#FFC0CB" height="2" style="stroke:#000000;stroke-width:1;" width="4" x="362.0318" y="327.12"/><text fill="#000000" font-family="sans-serif" font-size="20" lengthAdjust="spacing" textLength="88.75" x="270.2818" y="354.6845">Executor</text></g><!--entity ClientB--><g class="entity" data-entity="ClientB" data-source-line="36" data-uid="ent0011" id="entity_ClientB"><rect fill="#ADD8E6" height="76.5625" rx="2.5" ry="2.5" style="stroke:#000000;stroke-width:1;" width="103.7305" x="1005.7818" y="304.48"/><rect fill="#ADD8E6" height="10" style="stroke:#000000;stroke-width:1;" width="15" x="1089.5123" y="309.48"/><rect fill="#ADD8E6" height="2" style="stroke:#000000;stroke-width:1;" width="4" x="1087.5123" y="311.48"/><rect fill="#ADD8E6" height="2" style="stroke:#000000;stroke-width:1;" width="4" x="1087.5123" y="315.48"/><text fill="#000000" font-family="sans-serif" font-size="20" lengthAdjust="spacing" textLength="63.7305" x="1020.7818" y="343.0445">Ninja2</text><text fill="#000000" font-family="sans-serif" font-size="20" lengthAdjust="spacing" textLength="60" x="1020.7818" y="366.3257">&#23458;&#25143;&#31471;</text></g><!--entity RedisB--><g class="entity" data-entity="RedisB" data-source-line="41" data-uid="ent0015" id="entity_RedisB"><path d="M1144.2118,326.62 C1144.2118,316.62 1181.6483,316.62 1181.6483,316.62 C1181.6483,316.62 1219.0849,316.62 1219.0849,326.62 L1219.0849,358.9013 C1219.0849,368.9013 1181.6483,368.9013 1181.6483,368.9013 C1181.6483,368.9013 1144.2118,368.9013 1144.2118,358.9013 L1144.2118,326.62" fill="#D3D3D3" style="stroke:#666666;stroke-width:1;"/><path d="M1144.2118,326.62 C1144.2118,336.62 1181.6483,336.62 1181.6483,336.62 C1181.6483,336.62 1219.0849,336.62 1219.0849,326.62" fill="none" style="stroke:#666666;stroke-width:1;"/><text fill="#000000" font-family="sans-serif" font-size="20" lengthAdjust="spacing" textLength="54.873" x="1154.2118" y="359.1845">Redis</text></g><!--entity NFSB--><g class="entity" data-entity="NFSB" data-source-line="42" data-uid="ent0016" id="entity_NFSB"><rect fill="#D3D3D3" height="43.2813" rx="35" ry="35" style="stroke:#000000;stroke-width:1;" width="59.1602" x="1028.0718" y="441.05"/><text fill="#000000" font-family="sans-serif" font-size="20" lengthAdjust="spacing" textLength="39.1602" x="1038.0718" y="469.6145">NFS</text></g><!--entity ProxyB--><g class="entity" data-entity="ProxyB" data-source-line="38" data-uid="ent0013" id="entity_ProxyB"><rect fill="#98FB98" height="53.2813" rx="2.5" ry="2.5" style="stroke:#000000;stroke-width:1;" width="96.1914" x="711.5518" y="316.12"/><rect fill="#98FB98" height="10" style="stroke:#000000;stroke-width:1;" width="15" x="787.7432" y="321.12"/><rect fill="#98FB98" height="2" style="stroke:#000000;stroke-width:1;" width="4" x="785.7432" y="323.12"/><rect fill="#98FB98" height="2" style="stroke:#000000;stroke-width:1;" width="4" x="785.7432" y="327.12"/><text fill="#000000" font-family="sans-serif" font-size="20" lengthAdjust="spacing" textLength="56.1914" x="726.5518" y="354.6845">Proxy</text></g><!--entity ExecutorB--><g class="entity" data-entity="ExecutorB" data-source-line="39" data-uid="ent0014" id="entity_ExecutorB"><rect fill="#FFC0CB" height="53.2813" rx="2.5" ry="2.5" style="stroke:#000000;stroke-width:1;" width="128.75" x="842.2818" y="316.12"/><rect fill="#FFC0CB" height="10" style="stroke:#000000;stroke-width:1;" width="15" x="951.0318" y="321.12"/><rect fill="#FFC0CB" height="2" style="stroke:#000000;stroke-width:1;" width="4" x="949.0318" y="323.12"/><rect fill="#FFC0CB" height="2" style="stroke:#000000;stroke-width:1;" width="4" x="949.0318" y="327.12"/><text fill="#000000" font-family="sans-serif" font-size="20" lengthAdjust="spacing" textLength="88.75" x="857.2818" y="354.6845">Executor</text></g><!--entity ClientC--><g class="entity" data-entity="ClientC" data-source-line="46" data-uid="ent0018" id="entity_ClientC"><rect fill="#ADD8E6" height="76.5625" rx="2.5" ry="2.5" style="stroke:#000000;stroke-width:1;" width="103.7305" x="418.7818" y="632.69"/><rect fill="#ADD8E6" height="10" style="stroke:#000000;stroke-width:1;" width="15" x="502.5123" y="637.69"/><rect fill="#ADD8E6" height="2" style="stroke:#000000;stroke-width:1;" width="4" x="500.5123" y="639.69"/><rect fill="#ADD8E6" height="2" style="stroke:#000000;stroke-width:1;" width="4" x="500.5123" y="643.69"/><text fill="#000000" font-family="sans-serif" font-size="20" lengthAdjust="spacing" textLength="63.7305" x="433.7818" y="671.2545">Ninja2</text><text fill="#000000" font-family="sans-serif" font-size="20" lengthAdjust="spacing" textLength="60" x="433.7818" y="694.5357">&#23458;&#25143;&#31471;</text></g><!--entity RedisC--><g class="entity" data-entity="RedisC" data-source-line="51" data-uid="ent0022" id="entity_RedisC"><path d="M557.2118,654.83 C557.2118,644.83 594.6483,644.83 594.6483,644.83 C594.6483,644.83 632.0849,644.83 632.0849,654.83 L632.0849,687.1112 C632.0849,697.1112 594.6483,697.1112 594.6483,697.1112 C594.6483,697.1112 557.2118,697.1112 557.2118,687.1112 L557.2118,654.83" fill="#D3D3D3" style="stroke:#666666;stroke-width:1;"/><path d="M557.2118,654.83 C557.2118,664.83 594.6483,664.83 594.6483,664.83 C594.6483,664.83 632.0849,664.83 632.0849,654.83" fill="none" style="stroke:#666666;stroke-width:1;"/><text fill="#000000" font-family="sans-serif" font-size="20" lengthAdjust="spacing" textLength="54.873" x="567.2118" y="687.3945">Redis</text></g><!--entity NFSC--><g class="entity" data-entity="NFSC" data-source-line="52" data-uid="ent0023" id="entity_NFSC"><rect fill="#D3D3D3" height="43.2813" rx="35" ry="35" style="stroke:#000000;stroke-width:1;" width="59.1602" x="441.0718" y="769.25"/><text fill="#000000" font-family="sans-serif" font-size="20" lengthAdjust="spacing" textLength="39.1602" x="451.0718" y="797.8145">NFS</text></g><!--entity ProxyC--><g class="entity" data-entity="ProxyC" data-source-line="48" data-uid="ent0020" id="entity_ProxyC"><rect fill="#98FB98" height="53.2813" rx="2.5" ry="2.5" style="stroke:#000000;stroke-width:1;" width="96.1914" x="124.5518" y="644.33"/><rect fill="#98FB98" height="10" style="stroke:#000000;stroke-width:1;" width="15" x="200.7432" y="649.33"/><rect fill="#98FB98" height="2" style="stroke:#000000;stroke-width:1;" width="4" x="198.7432" y="651.33"/><rect fill="#98FB98" height="2" style="stroke:#000000;stroke-width:1;" width="4" x="198.7432" y="655.33"/><text fill="#000000" font-family="sans-serif" font-size="20" lengthAdjust="spacing" textLength="56.1914" x="139.5518" y="682.8945">Proxy</text></g><!--entity ExecutorC--><g class="entity" data-entity="ExecutorC" data-source-line="49" data-uid="ent0021" id="entity_ExecutorC"><rect fill="#FFC0CB" height="53.2813" rx="2.5" ry="2.5" style="stroke:#000000;stroke-width:1;" width="128.75" x="255.2818" y="644.33"/><rect fill="#FFC0CB" height="10" style="stroke:#000000;stroke-width:1;" width="15" x="364.0318" y="649.33"/><rect fill="#FFC0CB" height="2" style="stroke:#000000;stroke-width:1;" width="4" x="362.0318" y="651.33"/><rect fill="#FFC0CB" height="2" style="stroke:#000000;stroke-width:1;" width="4" x="362.0318" y="655.33"/><text fill="#000000" font-family="sans-serif" font-size="20" lengthAdjust="spacing" textLength="88.75" x="270.2818" y="682.8945">Executor</text></g><!--entity ClientD--><g class="entity" data-entity="ClientD" data-source-line="56" data-uid="ent0025" id="entity_ClientD"><rect fill="#ADD8E6" height="76.5625" rx="2.5" ry="2.5" style="stroke:#000000;stroke-width:1;" width="103.7305" x="1005.7818" y="632.69"/><rect fill="#ADD8E6" height="10" style="stroke:#000000;stroke-width:1;" width="15" x="1089.5123" y="637.69"/><rect fill="#ADD8E6" height="2" style="stroke:#000000;stroke-width:1;" width="4" x="1087.5123" y="639.69"/><rect fill="#ADD8E6" height="2" style="stroke:#000000;stroke-width:1;" width="4" x="1087.5123" y="643.69"/><text fill="#000000" font-family="sans-serif" font-size="20" lengthAdjust="spacing" textLength="63.7305" x="1020.7818" y="671.2545">Ninja2</text><text fill="#000000" font-family="sans-serif" font-size="20" lengthAdjust="spacing" textLength="60" x="1020.7818" y="694.5357">&#23458;&#25143;&#31471;</text></g><!--entity RedisD--><g class="entity" data-entity="RedisD" data-source-line="61" data-uid="ent0029" id="entity_RedisD"><path d="M1144.2118,654.83 C1144.2118,644.83 1181.6483,644.83 1181.6483,644.83 C1181.6483,644.83 1219.0849,644.83 1219.0849,654.83 L1219.0849,687.1112 C1219.0849,697.1112 1181.6483,697.1112 1181.6483,697.1112 C1181.6483,697.1112 1144.2118,697.1112 1144.2118,687.1112 L1144.2118,654.83" fill="#D3D3D3" style="stroke:#666666;stroke-width:1;"/><path d="M1144.2118,654.83 C1144.2118,664.83 1181.6483,664.83 1181.6483,664.83 C1181.6483,664.83 1219.0849,664.83 1219.0849,654.83" fill="none" style="stroke:#666666;stroke-width:1;"/><text fill="#000000" font-family="sans-serif" font-size="20" lengthAdjust="spacing" textLength="54.873" x="1154.2118" y="687.3945">Redis</text></g><!--entity NFSD--><g class="entity" data-entity="NFSD" data-source-line="62" data-uid="ent0030" id="entity_NFSD"><rect fill="#D3D3D3" height="43.2813" rx="35" ry="35" style="stroke:#000000;stroke-width:1;" width="59.1602" x="1028.0718" y="769.25"/><text fill="#000000" font-family="sans-serif" font-size="20" lengthAdjust="spacing" textLength="39.1602" x="1038.0718" y="797.8145">NFS</text></g><!--entity ProxyD--><g class="entity" data-entity="ProxyD" data-source-line="58" data-uid="ent0027" id="entity_ProxyD"><rect fill="#98FB98" height="53.2813" rx="2.5" ry="2.5" style="stroke:#000000;stroke-width:1;" width="96.1914" x="711.5518" y="644.33"/><rect fill="#98FB98" height="10" style="stroke:#000000;stroke-width:1;" width="15" x="787.7432" y="649.33"/><rect fill="#98FB98" height="2" style="stroke:#000000;stroke-width:1;" width="4" x="785.7432" y="651.33"/><rect fill="#98FB98" height="2" style="stroke:#000000;stroke-width:1;" width="4" x="785.7432" y="655.33"/><text fill="#000000" font-family="sans-serif" font-size="20" lengthAdjust="spacing" textLength="56.1914" x="726.5518" y="682.8945">Proxy</text></g><!--entity ExecutorD--><g class="entity" data-entity="ExecutorD" data-source-line="59" data-uid="ent0028" id="entity_ExecutorD"><rect fill="#FFC0CB" height="53.2813" rx="2.5" ry="2.5" style="stroke:#000000;stroke-width:1;" width="128.75" x="842.2818" y="644.33"/><rect fill="#FFC0CB" height="10" style="stroke:#000000;stroke-width:1;" width="15" x="951.0318" y="649.33"/><rect fill="#FFC0CB" height="2" style="stroke:#000000;stroke-width:1;" width="4" x="949.0318" y="651.33"/><rect fill="#FFC0CB" height="2" style="stroke:#000000;stroke-width:1;" width="4" x="949.0318" y="655.33"/><text fill="#000000" font-family="sans-serif" font-size="20" lengthAdjust="spacing" textLength="88.75" x="857.2818" y="682.8945">Executor</text></g><g class="entity" data-entity="GMN31" data-source-line="72" data-uid="ent0032" id="entity_GMN31"><path d="M1171.1418,11 L1171.1418,114.125 L1362.1613,114.125 L1362.1613,21 L1352.1613,11 L1171.1418,11" fill="#FFFFFF" style="stroke:#000000;stroke-width:1;"/><path d="M1352.1613,11 L1352.1613,21 L1362.1613,21 L1352.1613,11" fill="#FFFFFF" style="stroke:#000000;stroke-width:1;"/><text fill="#000000" font-family="sans-serif" font-size="20" font-weight="bold" lengthAdjust="spacing" textLength="79.9999" x="1177.1418" y="34.5645">&#32593;&#32476;&#36890;&#20449;</text><text fill="#000000" font-family="sans-serif" font-size="20" lengthAdjust="spacing" textLength="170.0195" x="1177.1418" y="57.8457">&#8226; P2P&#21457;&#29616;: libp2p</text><text fill="#000000" font-family="sans-serif" font-size="20" lengthAdjust="spacing" textLength="150.4101" x="1177.1418" y="81.127">&#8226; &#25991;&#20214;&#20849;&#20139;: NFS</text><text fill="#000000" font-family="sans-serif" font-size="20" lengthAdjust="spacing" textLength="166.123" x="1177.1418" y="104.4082">&#8226; &#29366;&#24577;&#21516;&#27493;: Redis</text></g><!--link GMN31 to LAN--><g class="link" data-entity-1="GMN31" data-entity-2="LAN" data-source-line="72" data-uid="lnk33" id="link_GMN31_LAN"><path d="M1266.6518,114.59 C1266.6518,119.5312 1266.6518,124.7244 1266.6518,130.1197 C1266.6518,131.4685 1266.6518,132.83 1266.6518,134.2033 C1266.6518,134.89 1266.6518,135.5796 1266.6518,136.2721 C1266.6518,136.6183 1266.6518,136.9653 1266.6518,137.313" fill="none" id="GMN31-LAN" style="stroke:#000000;stroke-width:1;stroke-dasharray:7.0,7.0;"/></g><!--SRC=[dPLRInj15CVVzrECyS4MlEHYGoiYkBi62csGvgdKFincnytKpSoo5wejGYg85qgCHHIag1MaWZHM12LUo7SfsOrvyYjqTbRZ9PPkp4AOdFcVC__p6tAsmywXF0A63Z4Hh0bC36Z2F53HE7HqEqM9dS6V48X71Q4BT1WcrF8Gw72AEZQmyiY61DvAKs1sGZEfGrI9wjG4dId-OQatcYpD6vGWLjYUqX4mKPOLqNGa_5FYvFNumzxIa7cFP2ZHR0moKlThd3MfHSTjy1Rc4ExEu7p68H7VkrjUhrKMtDbTzw3WRHsxPqktIXAg8l1P042XfehCA_E9HC8FjVJqp7_OZfM3Als8YGR6eMuXOVgsIMX31LeFL4qcamzL7Odw3wl1lEg8TM1JO68jPmCL-umm9G2mDcOF6olbMhNihLGkpzQzuazt_iWhVdFdrxpLYbjQvhqU5DpDpVhvibSuhPzKXQnE7HL4cc7m9FOYtXjBFk-DzKRxulrF8m1QuDLmchlbC28NYpFrcShm67avEd2ZZaLZN9jccc6k1ZUt1I9fJ3x0-1XnozlU_75zRv-B9HsptM7GgVlzABg3xkUDnaSL1-iga27AKyApWkNr8NVb9fsSuYA-OfKDg2FDH8YqYaScKTQngSdrrp_y54mck7gQVpSlBF86gTZYQhwwzgsPS8ehBPOFDIPCfp81Z5JcdeZTubsEOWl7U9EZs1v7yL4SnH0SnVOvYk4vYc4uYl_XABLmJ3GvIkrnb1x5KGh1KMgVenIUenI6e_GVZd8Bn_ucHxazZlAZECeXEChjSvJ3SvJ3S9HRE7O1Vmm7W_MYkk4LToxFvXlhfOkr9HPnonlrucztlz8uBrsUBN1rC2jxtkMmgYBolgUd9_ZRDpV5raqfU144npGAwxNg3szhpZlS5GYr4Nit682E-nERcHfKXjXChvz-3tI3VSeGY_ufR0E6trrQPeO6W8uL8svSnRtLkThfaJjxK3lP6_3Rl8hN5u-ymXUtzDNxjJCGK18GKO5_vby0]--></g></svg>